<?xml version="1.0" encoding="iso-8859-1"?>
<!-- Generator: Adobe Illustrator 22.0.1, SVG Export Plug-In . SVG Version: 6.00 Build 0)  -->
<svg version="1.1" id="Layer_7" xmlns="http://www.w3.org/2000/svg" xmlns:xlink="http://www.w3.org/1999/xlink" x="0px" y="0px"
	 viewBox="0 0 512 512" style="enable-background:new 0 0 512 512;" xml:space="preserve">
<g>
	<path style="fill:#FFC34A;" d="M0,255.998C0,114.608,114.613,0,256.002,0C397.386,0,512,114.608,512,255.998
		C512,397.389,397.386,512,256.002,512C114.613,512,0,397.389,0,255.998z"/>
	<g>
		<defs>
			<path id="SVGID_113_" d="M0,255.996C0,114.607,114.613,0,256.002,0C397.387,0,512,114.607,512,255.996
				C512,397.389,397.387,512,256.002,512C114.613,512,0,397.389,0,255.996z"/>
		</defs>
		<clipPath id="SVGID_2_">
			<use xlink:href="#SVGID_113_"  style="overflow:visible;"/>
		</clipPath>
		<ellipse style="clip-path:url(#SVGID_2_);fill:#A14B2A;" cx="256" cy="296" rx="120" ry="150"/>
		<g style="clip-path:url(#SVGID_2_);">
			<path style="fill:#E68C6F;" d="M189.227,265.974c6.561,15.537,2.988,30.638-7.979,33.73
				c-10.969,3.092-25.174-6.997-31.734-22.532c-6.561-15.537-2.988-30.639,7.979-33.73S182.668,250.439,189.227,265.974z"/>
			<path style="fill:#E68C6F;" d="M322.772,265.974c-6.561,15.537-2.986,30.638,7.98,33.73c10.967,3.092,25.174-6.997,31.732-22.532
				c6.562-15.537,2.99-30.639-7.979-33.73C343.541,240.349,329.332,250.439,322.772,265.974z"/>
		</g>
		<path style="clip-path:url(#SVGID_2_);fill:#E68C6F;" d="M441.602,545.884l-0.053-0.842c0-51.205-19.168-100.816-42.572-110.264
			l-99.68-40.158c-23.406-9.439-61.737-9.477-85.148-0.112l-101.107,40.396c-23.425,9.378-42.593,58.933-42.593,110.138
			l-0.052,0.842H441.602z"/>
		<path style="clip-path:url(#SVGID_2_);fill:#E68C6F;" d="M298.212,397.085c0,21.981-17.818,39.8-39.799,39.8h-4.826
			c-21.98,0-39.799-17.818-39.799-39.8V294.57c0-21.98,17.818-39.8,39.799-39.8h4.826c21.98,0,39.799,17.819,39.799,39.8V397.085z"
			/>
		<g style="clip-path:url(#SVGID_2_);">
			<g>
				<path style="fill:#F5B29C;" d="M341.653,297.265c0,33.786-29.862,61.17-66.704,61.17h-37.904
					c-36.837,0-66.699-27.384-66.699-61.17V197.17c0-33.782,29.862-61.17,66.699-61.17h37.904c36.842,0,66.704,27.388,66.704,61.17
					V297.265z"/>
			</g>
		</g>
		<g style="clip-path:url(#SVGID_2_);">
			<circle style="fill:#3D2A3D;" cx="223.159" cy="265.98" r="9.904"/>
			<circle style="fill:#3D2A3D;" cx="288.841" cy="265.98" r="9.904"/>
		</g>
		<path style="clip-path:url(#SVGID_2_);fill:#F59576;" d="M270.173,279.542c-0.449,7.895-7.047,14.157-15.202,14.157
			c-6.908,0-12.678-4.519-14.576-10.712c-0.424,1.452-0.732,2.963-0.732,4.546c0,9.028,7.327,16.353,16.339,16.353
			c9.035,0,16.335-7.325,16.335-16.353C272.337,284.607,271.518,281.915,270.173,279.542z"/>
		<path style="clip-path:url(#SVGID_2_);fill:#78BEDE;" d="M441.549,545.043c0-51.205-19.168-100.816-42.572-110.264l-79.255-31.93
			c-11.019,24.201-35.397,41.035-63.722,41.035c-28.194,0-52.479-16.678-63.57-40.698l-79.387,31.719
			c-23.425,9.378-42.593,58.933-42.593,110.138l-0.052,0.842h371.204L441.549,545.043z"/>
		<g style="clip-path:url(#SVGID_2_);">
			<g>
				<path style="fill:#A14B2A;" d="M206.548,249.09c5.69-6.259,13.699-9.05,22.034-9.183c4.145-0.066,4.152-6.5,0-6.435
					c-9.947,0.158-19.784,3.588-26.585,11.067C199.214,247.602,203.751,252.166,206.548,249.09L206.548,249.09z"/>
			</g>
			<g>
				<path style="fill:#A14B2A;" d="M310.003,244.54c-6.8-7.479-16.638-10.909-26.583-11.067c-4.151-0.066-4.146,6.369,0,6.435
					c8.334,0.133,16.342,2.923,22.033,9.183C308.249,252.166,312.787,247.602,310.003,244.54L310.003,244.54z"/>
			</g>
		</g>
		<g style="clip-path:url(#SVGID_2_);">
			<g>
				<path style="fill:#A91935;" d="M283.21,308.232c-11.207,18.079-43.153,18.134-54.431,0.1c-2.87-4.57-10.112-0.357-7.23,4.247
					c14.646,23.433,54.343,23.362,68.914-0.126C293.32,307.845,286.056,303.657,283.21,308.232L283.21,308.232z"/>
			</g>
		</g>
		<g style="clip-path:url(#SVGID_2_);">
			<g>
				<g>
					<g>
						
							<path style="fill:none;stroke:#A14B2A;stroke-width:16;stroke-linecap:round;stroke-linejoin:round;stroke-miterlimit:10;" d="
							M135.92,433.652c-3.136-3.238,8.675-22.258,5.086-25.467c-3.375-3.017-21.55,10.34-25.121,7.156
							c-3.397-3.028,8.2-22.225,4.801-25.57c-3.247-3.196-22.539,8.408-25.635,4.779c-2.948-3.455,11.692-20.43,9.013-24.402
							c-2.525-3.742-23.838,3.374-26.013-0.931c-2.022-4.001,16.308-16.925,14.676-21.498c-1.499-4.201-23.892-2.485-24.99-7.235
							c-1.003-4.336,19.803-12.783,19.187-17.626c-0.562-4.416-22.856-7.213-23.056-12.09c-0.183-4.455,21.779-9.221,21.929-14.089
							c0.138-4.468-21.527-10.455-21.086-15.293c0.408-4.465,22.794-6.535,23.479-11.333c0.844-5.911-19.187-16.591-17.391-22.232
							c1.797-5.644,24.365-2.872,27.039-8.202c2.641-5.264-13.172-21.58-9.751-26.498c3.354-4.82,24.243,4.207,28.277-0.242
							c3.94-4.345-7.2-24.175-2.676-28.129c4.417-3.861,22.664,9.752,27.577,6.296c4.802-3.378-1.925-25.121,3.295-28.079
							c5.114-2.899,20.367,14.006,25.828,11.539c5.364-2.423,2.719-25.037,8.368-27.016c5.562-1.948,17.629,17.36,23.418,15.87
							c5.713-1.471,6.941-24.21,12.83-25.21c5.821-0.988,14.486,20.065,20.434,19.561c5.886-0.498,10.895-22.714,16.862-22.714"/>
					</g>
					<g>
						
							<path style="fill:none;stroke:#A14B2A;stroke-width:16;stroke-linecap:round;stroke-linejoin:round;stroke-miterlimit:10;" d="
							M160.157,432.458c-2.53-3.488,12.011-20.436,9.096-23.9c-2.757-3.275-22.512,7.512-25.419,4.014
							c-2.727-3.282,11.851-20.249,9.153-23.93c-2.512-3.426-23.287,5.086-25.643,1.15c-2.17-3.625,15.174-17.767,13.238-21.955
							c-1.765-3.818-23.81,0.266-25.303-4.118c-1.353-3.974,18.537-14.285,17.466-18.797c-0.969-4.084-23.39-4.214-24.085-8.794
							c-0.631-4.158,20.7-11.067,20.328-15.675c-0.34-4.204-22.527-7.48-22.627-12.09c-0.092-4.229,21.916-8.563,22.045-13.157
							c0.119-4.241-21.632-9.725-21.31-14.295c0.299-4.246,22.6-6.695,23.086-11.241c0.541-5.053-20.331-13.539-19.266-18.397
							c1.085-4.953,23.602-3.927,25.194-8.649c1.617-4.795-16.915-17.61-14.814-22.138c2.127-4.584,23.889,1.289,26.471-2.991
							c2.608-4.322-12.735-20.826-9.705-24.807c3.055-4.014,23.056,6.376,26.497,2.74c3.466-3.662-8.001-23.063-4.187-26.308
							c3.839-3.267,21.145,11.168,25.291,8.357c4.171-2.828-2.808-24.257,1.627-26.589c4.457-2.344,18.125,15.565,22.803,13.755
							c4.691-1.815,2.788-24.269,7.654-25.513c4.864-1.243,13.92,19.378,18.912,18.74c4.967-0.634,8.593-22.871,13.641-22.871"/>
					</g>
				</g>
				<g>
					<path style="fill:none;stroke:#A14B2A;stroke-width:16;stroke-linecap:round;stroke-linejoin:round;stroke-miterlimit:10;" d="
						M180.157,432.458c-2.53-3.488,12.011-20.436,9.096-23.9c-2.757-3.275-22.512,7.512-25.419,4.014
						c-2.727-3.282,11.851-20.249,9.153-23.93c-2.512-3.426-23.287,5.086-25.643,1.15c-2.17-3.625,15.174-17.767,13.238-21.955
						c-1.765-3.818-23.81,0.266-25.303-4.118c-1.353-3.974,18.537-14.285,17.466-18.797c-0.969-4.084-23.39-4.214-24.085-8.794
						c-0.631-4.158,20.7-11.067,20.328-15.675c-0.34-4.204-22.527-7.48-22.627-12.09c-0.092-4.229,21.916-8.563,22.045-13.157
						c0.119-4.241-21.632-9.725-21.31-14.295c0.299-4.246,22.6-6.695,23.086-11.241c0.541-5.053-20.331-13.539-19.266-18.397
						c1.085-4.953,23.602-3.927,25.194-8.649c1.617-4.795-16.915-17.61-14.814-22.138c2.127-4.584,23.889,1.289,26.471-2.991
						c2.608-4.322-12.735-20.826-9.705-24.807c3.055-4.014,23.056,6.376,26.497,2.74c3.466-3.662-8.001-23.063-4.187-26.308
						c3.839-3.267,21.145,11.168,25.291,8.357c4.171-2.828-2.808-24.257,1.627-26.589c4.457-2.344,18.125,15.565,22.803,13.755
						c4.691-1.815,2.788-24.269,7.654-25.513c4.864-1.243,13.92,19.378,18.912,18.74c4.967-0.634,8.593-22.871,13.641-22.871"/>
				</g>
			</g>
			<g>
				<g>
					<g>
						
							<path style="fill:none;stroke:#A14B2A;stroke-width:16;stroke-linecap:round;stroke-linejoin:round;stroke-miterlimit:10;" d="
							M360.277,418.348c3.136-3.238,21.791,9.449,25.38,6.24c3.375-3.017-7.753-22.483-4.182-25.667
							c3.397-3.028,21.874,9.875,25.272,6.53c3.247-3.196-9.628-21.552-6.532-25.181c2.948-3.455,23.28,6.155,25.96,2.184
							c2.525-3.742-14.034-18.854-11.859-23.159c2.022-4.001,24.048,0.39,25.68-4.183c1.499-4.201-18.263-14.836-17.164-19.586
							c1.003-4.336,23.455-5.046,24.071-9.889c0.562-4.416-20.95-10.894-20.75-15.77c0.183-4.455,22.192-8.996,22.042-13.864
							c-0.138-4.468-22.371-7.776-22.813-12.614c-0.408-4.465,20.894-11.647,20.209-16.445c-0.844-5.911-23.555-6.804-25.351-12.445
							c-1.797-5.644,16.262-19.411,13.589-24.741c-2.641-5.264-24.552,0.848-27.974-4.07c-3.354-4.82,10.114-23.136,6.08-27.584
							c-3.94-4.345-23.577,7.167-28.1,3.212c-4.417-3.861,4.471-24.807-0.441-28.262c-4.802-3.378-21.58,12.013-26.8,9.055
							c-5.114-2.899-0.462-25.183-5.924-27.65c-5.364-2.423-19.048,15.776-24.696,13.797c-5.562-1.948-4.871-24.708-10.661-26.199
							c-5.713-1.471-16.109,18.785-21.998,17.785c-5.821-0.988-8.947-23.546-14.895-24.05C272.534,135.294,265.669,157,259.702,157"
							/>
					</g>
					<g>
						
							<path style="fill:none;stroke:#A14B2A;stroke-width:16;stroke-linecap:round;stroke-linejoin:round;stroke-miterlimit:10;" d="
							M334.034,419.542c2.53-3.488,22.629,6.648,25.545,3.184c2.757-3.275-11.238-20.717-8.331-24.216
							c2.727-3.282,22.811,6.821,25.509,3.14c2.512-3.426-13.332-19.221-10.976-23.158c2.17-3.625,23.671,2.765,25.607-1.422
							c1.765-3.818-16.984-16.058-15.491-20.442c1.353-3.974,23.694-2.113,24.765-6.625c0.969-4.084-19.767-12.593-19.072-17.173
							c0.631-4.158,22.98-5.996,23.352-10.604c0.34-4.204-21.397-9.728-21.297-14.337c0.092-4.229,22.07-8.705,21.941-13.299
							c-0.119-4.241-22.305-7.56-22.627-12.13c-0.299-4.246,21.221-10.583,20.735-15.128c-0.541-5.053-23.035-6.49-24.099-11.347
							c-1.085-4.953,18.735-15.667,17.142-20.389c-1.617-4.795-23.888-1.319-25.989-5.848c-2.127-4.584,14.905-19.336,12.323-23.616
							c-2.608-4.322-23.609,3.862-26.639-0.119c-3.055-4.014,10.429-22.07,6.988-25.706c-3.466-3.662-22.235,8.815-26.049,5.57
							c-3.839-3.267,5.459-23.796,1.313-26.607c-4.171-2.828-19.778,13.424-24.214,11.091c-4.457-2.344,0.054-24.424-4.623-26.234
							c-4.691-1.815-16.173,17.564-21.039,16.32c-4.864-1.243-5.688-23.761-10.681-24.398C273.16,135.414,266.749,157,261.702,157"
							/>
					</g>
				</g>
				<g>
					<path style="fill:none;stroke:#A14B2A;stroke-width:16;stroke-linecap:round;stroke-linejoin:round;stroke-miterlimit:10;" d="
						M314.034,419.542c2.53-3.488,22.629,6.648,25.545,3.184c2.757-3.275-11.238-20.717-8.331-24.216
						c2.727-3.282,22.811,6.821,25.509,3.14c2.512-3.426-13.332-19.221-10.976-23.158c2.17-3.625,23.671,2.765,25.607-1.422
						c1.765-3.818-16.984-16.058-15.491-20.442c1.353-3.974,23.694-2.113,24.765-6.625c0.969-4.084-19.767-12.593-19.072-17.173
						c0.631-4.158,22.98-5.996,23.352-10.604c0.34-4.204-21.397-9.728-21.297-14.337c0.092-4.229,22.07-8.705,21.941-13.299
						c-0.119-4.241-22.305-7.56-22.627-12.13c-0.299-4.246,21.221-10.583,20.735-15.128c-0.541-5.053-23.035-6.49-24.099-11.347
						c-1.085-4.953,18.735-15.667,17.142-20.389c-1.617-4.795-23.888-1.319-25.989-5.848c-2.127-4.584,14.905-19.336,12.323-23.616
						c-2.608-4.322-23.609,3.862-26.639-0.119c-3.055-4.014,10.429-22.07,6.988-25.706c-3.466-3.662-22.235,8.815-26.049,5.57
						c-3.839-3.267,5.459-23.796,1.313-26.607c-4.171-2.828-19.778,13.424-24.214,11.091c-4.457-2.344,0.054-24.424-4.623-26.234
						c-4.691-1.815-16.173,17.564-21.039,16.32c-4.864-1.243-5.688-23.761-10.681-24.398C253.16,135.414,246.749,157,241.701,157"/>
				</g>
			</g>
		</g>
	</g>
</g>
</svg>
