<?xml version="1.0" encoding="iso-8859-1"?>
<!-- Generator: Adobe Illustrator 22.0.1, SVG Export Plug-In . SVG Version: 6.00 Build 0)  -->
<svg version="1.1" id="Layer_7" xmlns="http://www.w3.org/2000/svg" xmlns:xlink="http://www.w3.org/1999/xlink" x="0px" y="0px"
	 viewBox="0 0 512 512" style="enable-background:new 0 0 512 512;" xml:space="preserve">
<g>
	<path style="fill:#FFC34A;" d="M512,256.002C512,397.392,397.387,512,255.998,512C114.614,512,0,397.392,0,256.002
		C0,114.612,114.614,0,255.998,0C397.387,0,512,114.612,512,256.002z"/>
	<g>
		<defs>
			<path id="SVGID_45_" d="M0,255.996C0,114.607,114.613,0,256.002,0C397.387,0,512,114.607,512,255.996
				C512,397.389,397.387,512,256.002,512C114.613,512,0,397.389,0,255.996z"/>
		</defs>
		<clipPath id="SVGID_2_">
			<use xlink:href="#SVGID_45_"  style="overflow:visible;"/>
		</clipPath>
		<path style="clip-path:url(#SVGID_2_);fill:#572020;" d="M395.224,415.726c0-21.793-17.951-21.793-17.951-43.585
			c0-21.793,17.951-21.793,17.951-43.587c0-21.792-17.951-21.792-17.951-43.585c0-21.792,17.951-21.792,17.951-43.584
			c0-21.789-17.951-21.789-17.951-43.579c0-0.652,0.027-1.292,0.077-1.922H147.678c0.05,0.632,0.078,1.275,0.078,1.929
			c0,21.796-17.951,21.796-17.951,43.591c0,21.793,17.951,21.793,17.951,43.585c0,21.793-17.951,21.793-17.951,43.587
			c0,21.792,17.951,21.792,17.951,43.585c0,21.792-17.951,21.792-17.951,43.584c0,21.789,17.951,21.789,17.951,43.579
			c0,21.792-28.908,31.009-16.294,48.779c8.954,12.614,22.788-14.171,38.257-14.171s15.469,17.951,30.938,17.951
			c15.467,0,15.467-17.951,30.934-17.951c15.467,0,15.467,17.951,30.935,17.951c15.467,0,15.467-17.951,30.933-17.951
			c15.466,0,15.466,17.951,30.933,17.951c15.465,0,15.465-17.951,30.929-17.951c15.464,0,29.3,26.781,38.248,14.169
			c12.612-17.776-9.291-21.39-15.991-46.468C371.951,440.577,395.224,437.522,395.224,415.726z"/>
		<g style="clip-path:url(#SVGID_2_);">
			<path style="fill:#F0B39C;" d="M196.07,265.974c6.561,15.537,2.988,30.638-7.979,33.73c-10.969,3.092-25.174-6.997-31.734-22.532
				c-6.561-15.537-2.988-30.639,7.979-33.73S189.511,250.439,196.07,265.974z"/>
			<path style="fill:#F0B39C;" d="M329.615,265.974c-6.56,15.537-2.986,30.638,7.981,33.73c10.967,3.092,25.174-6.997,31.732-22.532
				c6.562-15.537,2.99-30.639-7.979-33.73C350.384,240.349,336.175,250.439,329.615,265.974z"/>
		</g>
		<ellipse style="clip-path:url(#SVGID_2_);fill:#572020;" cx="262.843" cy="191.577" rx="115" ry="105.272"/>
		<path style="clip-path:url(#SVGID_2_);fill:#F0B39C;" d="M448.445,545.884l-0.053-0.842c0-51.205-19.168-100.816-42.572-110.264
			l-99.68-40.158c-23.406-9.439-61.737-9.477-85.148-0.112l-101.106,40.396c-23.425,9.378-42.593,58.933-42.593,110.138
			l-0.052,0.842H448.445z"/>
		<path style="clip-path:url(#SVGID_2_);fill:#F0B39C;" d="M305.055,397.085c0,21.981-17.818,39.8-39.799,39.8h-4.826
			c-21.98,0-39.799-17.818-39.799-39.8V294.57c0-21.98,17.818-39.8,39.799-39.8h4.826c21.98,0,39.799,17.819,39.799,39.8V397.085z"
			/>
		<g style="clip-path:url(#SVGID_2_);">
			<path style="fill:#FFDBC5;" d="M357.623,272.125c0,54.088-42.414,97.85-94.766,97.85l0,0c-52.379,0-94.794-43.762-94.794-97.85
				v-56.403c0-54.004,42.415-97.837,94.794-97.837l0,0c52.352,0,94.766,43.833,94.766,97.837V272.125z"/>
		</g>
		<g style="clip-path:url(#SVGID_2_);">
			<circle style="fill:#572020;" cx="230.002" cy="275.449" r="9.904"/>
			<circle style="fill:#572020;" cx="295.684" cy="275.449" r="9.904"/>
		</g>
		<g style="clip-path:url(#SVGID_2_);">
			<path style="fill:#572020;" d="M262.844,115.709c-55.532,0-100.55,48.792-100.55,108.984c0,19.989,4.969,38.717,13.635,54.824
				l9.989-84.724l153.834-0.007l10.008,84.729c8.664-16.105,13.633-34.833,13.633-54.822
				C363.392,164.501,318.375,115.709,262.844,115.709z"/>
		</g>
		<g style="clip-path:url(#SVGID_2_);">
			<path style="fill:#FFFFFF;" d="M283.601,311.34c-11.174,10.52-30.342,10.52-41.518,0c-7.879-7.418-19.781,4.44-11.879,11.88
				c17.939,16.887,47.338,16.887,65.275,0C303.385,315.78,291.482,303.922,283.601,311.34L283.601,311.34z"/>
		</g>
		<path style="clip-path:url(#SVGID_2_);fill:#F0B39C;" d="M277.016,279.542c-0.449,7.895-7.047,14.157-15.202,14.157
			c-6.908,0-12.678-4.519-14.576-10.712c-0.424,1.452-0.732,2.963-0.732,4.546c0,9.028,7.327,16.353,16.339,16.353
			c9.035,0,16.335-7.325,16.335-16.353C279.18,284.607,278.361,281.915,277.016,279.542z"/>
		<path style="clip-path:url(#SVGID_2_);fill:#78BEDE;" d="M448.392,545.043c0-51.205-19.168-100.816-42.572-110.264l-79.255-31.93
			c-11.019,24.201-35.397,41.035-63.722,41.035c-28.194,0-52.479-16.678-63.57-40.698l-79.387,31.719
			c-23.425,9.378-42.593,58.933-42.593,110.138l-0.052,0.842h371.204L448.392,545.043z"/>
		<path style="clip-path:url(#SVGID_2_);fill:#572020;" d="M279.402,135.158c-14.469,14.485-28.925,28.983-43.402,43.461
			c13.605,11.378,7.907,26.297,26.664,36.731c20.963,11.66,30.568-5.608,51.53,6.053c20.962,11.66,11.358,28.928,32.32,40.588
			c3.948,2.196,7.493,3.365,10.788,3.895c-2.538-31.284-5.055-62.573-7.955-93.822C326.695,158.554,303.36,146.2,279.402,135.158z"
			/>
		<g style="clip-path:url(#SVGID_2_);">
			
				<ellipse transform="matrix(0.7836 -0.6212 0.6212 0.7836 -86.7538 175.0553)" style="fill:#7A2D2D;" cx="207.932" cy="212.071" rx="75" ry="40.061"/>
			<g>
				
					<ellipse transform="matrix(0.6212 -0.7836 0.7836 0.6212 -48.8247 323.1314)" style="fill:#7A2D2D;" cx="309.841" cy="212.071" rx="40.061" ry="75"/>
			</g>
		</g>
	</g>
</g>
</svg>
