<?xml version="1.0" encoding="iso-8859-1"?>
<!-- Generator: Adobe Illustrator 22.0.1, SVG Export Plug-In . SVG Version: 6.00 Build 0)  -->
<svg version="1.1" id="Layer_7" xmlns="http://www.w3.org/2000/svg" xmlns:xlink="http://www.w3.org/1999/xlink" x="0px" y="0px"
	 viewBox="0 0 512 512" style="enable-background:new 0 0 512 512;" xml:space="preserve">
<g>
	<path style="fill:#E1902B;" d="M512,256.002C512,397.392,397.387,512,255.998,512C114.614,512,0,397.392,0,256.002
		C0,114.612,114.614,0,255.998,0C397.387,0,512,114.612,512,256.002z"/>
	<g>
		<defs>
			<path id="SVGID_47_" d="M0,255.996C0,114.607,114.613,0,256.002,0C397.387,0,512,114.607,512,255.996
				C512,397.389,397.387,512,256.002,512C114.613,512,0,397.389,0,255.996z"/>
		</defs>
		<clipPath id="SVGID_2_">
			<use xlink:href="#SVGID_47_"  style="overflow:visible;"/>
		</clipPath>
		<g style="clip-path:url(#SVGID_2_);">
			<path style="fill:#A14B2A;" d="M231.671,483.84c13.467-17.134-0.646-28.227,12.821-45.36
				c13.468-17.134,27.581-6.041,41.048-23.175c13.467-17.133-0.646-28.226,12.821-45.36c13.467-17.133,27.58-6.04,41.047-23.173
				c13.465-17.131-0.648-28.224,12.817-45.355c0.403-0.512,0.82-0.999,1.248-1.463L172.904,158.025
				c-0.351,0.528-0.727,1.05-1.131,1.565c-13.469,17.136-27.582,6.043-41.051,23.179c-13.467,17.133,0.646,28.227-12.821,45.36
				c-13.468,17.134-27.581,6.041-41.048,23.175c-13.467,17.133,0.646,28.226-12.821,45.359c-13.467,17.133-27.58,6.04-41.047,23.173
				c-13.465,17.131,0.648,28.224-12.817,45.355c-13.467,17.133-41.89,6.515-42.954,28.281c-0.755,15.451,26.673,2.941,38.835,12.5
				c12.162,9.559,1.069,23.672,13.231,33.232c12.16,9.558,23.253-4.555,35.413,5.003c12.161,9.558,1.067,23.671,13.228,33.23
				c12.16,9.558,23.253-4.555,35.413,5.003c12.16,9.558,1.067,23.671,13.226,33.229c12.158,9.557,23.251-4.557,35.41,5
				c12.158,9.556,6.486,39.162,21.315,34.776c20.901-6.182,5.914-22.558,16.143-46.416
				C198.017,488.997,218.202,500.976,231.671,483.84z"/>
			<path style="fill:#A14B2A;" d="M280.329,483.84c-13.467-17.134,0.646-28.227-12.821-45.36
				c-13.468-17.134-27.581-6.041-41.048-23.175c-13.467-17.133,0.646-28.226-12.821-45.36c-13.467-17.133-27.58-6.04-41.047-23.173
				c-13.465-17.131,0.648-28.224-12.817-45.355c-0.403-0.512-0.82-0.999-1.248-1.463l180.569-141.929
				c0.351,0.528,0.727,1.05,1.131,1.565c13.469,17.136,27.582,6.043,41.051,23.179c13.467,17.133-0.646,28.227,12.821,45.36
				c13.468,17.134,27.581,6.041,41.048,23.175c13.467,17.133-0.646,28.226,12.821,45.359c13.467,17.133,27.58,6.04,41.047,23.173
				c13.465,17.131-0.648,28.224,12.817,45.355c13.467,17.133,41.891,6.515,42.954,28.281c0.755,15.451-26.673,2.941-38.835,12.5
				c-12.162,9.559-1.069,23.672-13.231,33.232c-12.16,9.558-23.253-4.555-35.413,5.003c-12.161,9.558-1.067,23.671-13.228,33.23
				c-12.16,9.558-23.253-4.555-35.413,5.003c-12.16,9.558-1.067,23.671-13.226,33.229c-12.158,9.557-23.251-4.557-35.41,5
				c-12.158,9.556-6.486,39.162-21.315,34.776c-20.901-6.182-5.914-22.558-16.143-46.416
				C313.983,488.997,293.798,500.976,280.329,483.84z"/>
		</g>
		<g style="clip-path:url(#SVGID_2_);">
			<path style="fill:#F0B39C;" d="M189.227,265.974c6.561,15.537,2.988,30.638-7.979,33.73
				c-10.969,3.092-25.174-6.997-31.734-22.532c-6.561-15.537-2.988-30.639,7.979-33.73S182.668,250.439,189.227,265.974z"/>
			<path style="fill:#F0B39C;" d="M322.772,265.974c-6.561,15.537-2.986,30.638,7.98,33.73c10.967,3.092,25.174-6.997,31.732-22.532
				c6.562-15.537,2.99-30.639-7.979-33.73C343.541,240.349,329.332,250.439,322.772,265.974z"/>
		</g>
		<ellipse style="clip-path:url(#SVGID_2_);fill:#A14B2A;" cx="256" cy="191.577" rx="115" ry="105.272"/>
		<path style="clip-path:url(#SVGID_2_);fill:#F0B39C;" d="M441.602,545.884l-0.053-0.842c0-51.205-19.168-100.816-42.572-110.264
			l-99.68-40.158c-23.406-9.439-61.737-9.477-85.148-0.112l-101.107,40.396c-23.425,9.378-42.593,58.933-42.593,110.138
			l-0.052,0.842H441.602z"/>
		<path style="clip-path:url(#SVGID_2_);fill:#F0B39C;" d="M298.212,397.085c0,21.981-17.818,39.8-39.799,39.8h-4.826
			c-21.98,0-39.799-17.818-39.799-39.8V294.57c0-21.98,17.818-39.8,39.799-39.8h4.826c21.98,0,39.799,17.819,39.799,39.8V397.085z"
			/>
		<g style="clip-path:url(#SVGID_2_);">
			<path style="fill:#FFDBC5;" d="M350.78,272.125c0,54.088-42.414,97.85-94.766,97.85l0,0c-52.379,0-94.794-43.762-94.794-97.85
				v-56.403c0-54.004,42.415-97.837,94.794-97.837l0,0c52.352,0,94.766,43.833,94.766,97.837V272.125z"/>
		</g>
		<g style="clip-path:url(#SVGID_2_);">
			<circle style="fill:#2961A5;" cx="223.159" cy="275.449" r="9.904"/>
			<circle style="fill:#2961A5;" cx="288.841" cy="275.449" r="9.904"/>
		</g>
		<g style="clip-path:url(#SVGID_2_);">
			<path style="fill:#A14B2A;" d="M256,115.709c-55.532,0-100.55,48.792-100.55,108.984c0,19.989,4.969,38.717,13.635,54.824
				l9.989-84.724l153.834-0.007l10.008,84.729c8.664-16.105,13.633-34.833,13.633-54.822
				C356.549,164.501,311.532,115.709,256,115.709z"/>
		</g>
		<path style="clip-path:url(#SVGID_2_);fill:#F0B39C;" d="M270.173,279.542c-0.449,7.895-7.047,14.157-15.202,14.157
			c-6.908,0-12.678-4.519-14.576-10.712c-0.424,1.452-0.732,2.963-0.732,4.546c0,9.028,7.327,16.353,16.339,16.353
			c9.035,0,16.335-7.325,16.335-16.353C272.337,284.607,271.518,281.915,270.173,279.542z"/>
		<path style="clip-path:url(#SVGID_2_);fill:#3D2A3D;" d="M441.549,545.043c0-51.205-19.168-100.816-42.572-110.264l-79.255-31.93
			c-11.019,24.201-35.397,41.035-63.722,41.035c-28.194,0-52.479-16.678-63.57-40.698l-79.387,31.719
			c-23.425,9.378-42.593,58.933-42.593,110.138l-0.052,0.842h371.204L441.549,545.043z"/>
		<g style="clip-path:url(#SVGID_2_);">
			<g>
				<path style="fill:#A91935;" d="M221.625,310.902c0,0.186-0.011,0.395-0.011,0.592c0,18.991,15.405,34.39,34.384,34.39
					c18.983,0,34.388-15.399,34.388-34.39c0-0.197-0.015-0.407-0.023-0.592H221.625z"/>
				<path style="fill:#FFFFFF;" d="M232.542,310.902v2.943c0,5.974,4.833,10.806,10.797,10.806h35.376
					c5.972,0,10.812-4.833,10.812-10.806v-2.943H232.542z"/>
			</g>
		</g>
		<g style="clip-path:url(#SVGID_2_);">
			<g>
				<path style="fill:#BF642C;" d="M207.967,255.281c6.666-3.328,14.08-4.521,21.48-4.354c6.743,0.152,6.728-10.298,0-10.45
					c-9.286-0.21-18.431,1.624-26.754,5.781C196.663,249.269,201.957,258.282,207.967,255.281L207.967,255.281z"/>
			</g>
			<g>
				<path style="fill:#BF642C;" d="M302.1,255.281c-6.665-3.328-14.079-4.521-21.48-4.354c-6.742,0.152-6.728-10.298,0-10.45
					c9.287-0.21,18.431,1.624,26.754,5.781C313.405,249.269,308.111,258.282,302.1,255.281L302.1,255.281z"/>
			</g>
		</g>
		<g style="clip-path:url(#SVGID_2_);">
			<path style="fill:#BF642C;" d="M221.969,200.872c0,13.814-13.865,25.012-30.967,25.012s-30.969-11.199-30.969-25.012
				c0-13.813,13.867-25.012,30.969-25.012S221.969,187.059,221.969,200.872z"/>
			<path style="fill:#BF642C;" d="M281.522,200.872c0,13.814-13.865,25.012-30.969,25.012c-17.102,0-30.967-11.199-30.967-25.012
				c0-13.813,13.865-25.012,30.967-25.012C267.658,175.86,281.522,187.059,281.522,200.872z"/>
			<ellipse style="fill:#BF642C;" cx="310.107" cy="200.872" rx="30.967" ry="25.012"/>
		</g>
	</g>
</g>
</svg>
