<?xml version="1.0" encoding="iso-8859-1"?>
<!-- Generator: Adobe Illustrator 22.0.1, SVG Export Plug-In . SVG Version: 6.00 Build 0)  -->
<svg version="1.1" id="Layer_7" xmlns="http://www.w3.org/2000/svg" xmlns:xlink="http://www.w3.org/1999/xlink" x="0px" y="0px"
	 viewBox="0 0 512 512" style="enable-background:new 0 0 512 512;" xml:space="preserve">
<g>
	<path style="fill:#A18FA1;" d="M512,256.002C512,397.392,397.387,512,255.998,512C114.614,512,0,397.392,0,256.002
		C0,114.612,114.614,0,255.998,0C397.387,0,512,114.612,512,256.002z"/>
	<g>
		<defs>
			<path id="SVGID_1_" d="M0,255.996C0,114.607,114.613,0,256.002,0C397.387,0,512,114.607,512,255.996
				C512,397.389,397.387,512,256.002,512C114.613,512,0,397.389,0,255.996z"/>
		</defs>
		<clipPath id="SVGID_2_">
			<use xlink:href="#SVGID_1_"  style="overflow:visible;"/>
		</clipPath>
		<g style="clip-path:url(#SVGID_2_);">
			<g>
				<path style="fill:#F7A848;" d="M167.638,202.567c-8.168-2.891-16.369-4.636-24.33-5.35c-0.465,4.258-1.424,8.546-2.924,12.784
					c-9.746,27.543-38.414,42.535-64.143,33.622c0.209,24.997,21.963,51.058,54.703,62.643
					c39.049,13.817,78.918,1.805,89.051-26.832C230.129,250.799,206.687,216.385,167.638,202.567z"/>
				<path style="fill:#F7A848;" d="M349.845,202.567c8.168-2.891,16.369-4.636,24.33-5.35c0.465,4.258,1.424,8.546,2.924,12.784
					c9.746,27.543,38.412,42.535,64.142,33.622c-0.211,24.997-21.965,51.058-54.703,62.643
					c-39.051,13.817-78.918,1.805-89.051-26.832C287.355,250.799,310.795,216.385,349.845,202.567z"/>
			</g>
			<polygon style="fill:#F7A848;" points="388.517,268 361.373,141 153.711,141 128.967,268 			"/>
			<g>
				<path style="fill:#F0B39C;" d="M191.969,228.09c6.561,15.537,2.988,30.638-7.979,33.73
					c-10.969,3.092-25.174-6.997-31.734-22.532c-6.561-15.537-2.988-30.639,7.979-33.73
					C171.201,202.465,185.41,212.555,191.969,228.09z"/>
				<path style="fill:#F0B39C;" d="M325.514,228.09c-6.561,15.537-2.986,30.638,7.98,33.73s25.174-6.997,31.732-22.532
					c6.562-15.537,2.99-30.639-7.979-33.73C346.283,202.465,332.074,212.555,325.514,228.09z"/>
			</g>
			<ellipse style="fill:#704D70;" cx="258.742" cy="160.482" rx="107.583" ry="98.482"/>
			<path style="fill:#F0B39C;" d="M442.973,508l-0.053-0.842c0-51.205-19.168-100.816-42.572-110.264l-99.68-40.158
				c-23.406-9.439-61.737-9.477-85.148-0.112l-101.107,40.397c-23.425,9.378-42.593,58.933-42.593,110.138L71.769,508H442.973z"/>
			<path style="fill:#F0B39C;" d="M300.954,359.2c0,21.981-17.818,39.8-39.799,39.8h-4.826c-21.98,0-39.799-17.818-39.799-39.8
				V256.685c0-21.98,17.818-39.8,39.799-39.8h4.826c21.98,0,39.799,17.819,39.799,39.8V359.2z"/>
			<g>
				<path style="fill:#FFDBC5;" d="M353.522,234.24c0,54.088-42.414,97.85-94.766,97.85l0,0c-52.379,0-94.794-43.762-94.794-97.85
					v-56.403c0-54.004,42.415-97.837,94.794-97.837l0,0c52.352,0,94.766,43.833,94.766,97.837V234.24z"/>
			</g>
			<g>
				<circle style="fill:#2961A5;" cx="225.9" cy="237.564" r="9.904"/>
				<circle style="fill:#2961A5;" cx="291.583" cy="237.564" r="9.904"/>
			</g>
			<g>
				<path style="fill:#FFC34A;" d="M258.742,77.824c-55.532,0-100.55,48.792-100.55,108.984c0,19.989,4.969,38.717,13.635,54.824
					l9.989-84.724l153.834-0.007l10.008,84.729c8.664-16.105,13.633-34.833,13.633-54.822
					C359.291,126.616,314.274,77.824,258.742,77.824z"/>
			</g>
			<g>
				<g>
					<path style="fill:#F09041;" d="M204.924,220.344c7.959-8.755,19.16-12.658,30.818-12.844c5.797-0.092,5.807-9.092,0-9
						c-13.912,0.221-27.672,5.019-37.184,15.48C194.666,218.263,201.012,224.646,204.924,220.344L204.924,220.344z"/>
				</g>
				<g>
					<path style="fill:#F09041;" d="M318.924,213.98c-9.512-10.461-23.272-15.259-37.182-15.48c-5.807-0.092-5.799,8.908,0,9
						c11.656,0.186,22.858,4.089,30.816,12.844C316.471,224.646,322.819,218.263,318.924,213.98L318.924,213.98z"/>
				</g>
			</g>
			<g>
				<path style="fill:#FFFFFF;" d="M279.5,273.455c-11.174,10.52-30.342,10.52-41.518,0c-7.879-7.418-19.781,4.44-11.879,11.88
					c17.939,16.887,47.338,16.887,65.275,0C299.283,277.896,287.381,266.037,279.5,273.455L279.5,273.455z"/>
			</g>
			<path style="fill:#F0B39C;" d="M276.51,241.657c-0.449,7.895-7.047,14.157-15.202,14.157c-6.908,0-12.678-4.519-14.576-10.712
				c-0.424,1.452-0.732,2.963-0.732,4.546c0,9.028,7.327,16.352,16.339,16.352c9.035,0,16.335-7.325,16.335-16.352
				C278.674,246.722,277.855,244.03,276.51,241.657z"/>
		</g>
		<path style="clip-path:url(#SVGID_2_);fill:#FFC34A;" d="M337.737,202c0.83-5.32,1.263-10.796,1.263-16.386
			c0-51.83-37.161-93.847-82.999-93.847c-45.84,0-83.001,42.016-83.001,93.847c0,5.591,0.434,11.066,1.263,16.386H337.737z"/>
		<path style="clip-path:url(#SVGID_2_);fill:#704D70;" d="M442.92,507.158c0-51.205-19.168-100.816-42.572-110.264l-79.255-31.93
			C310.075,389.166,285.697,406,257.371,406c-28.194,0-52.479-16.678-63.57-40.698l-79.387,31.719
			c-23.425,9.378-42.593,58.933-42.593,110.138L71.769,508h371.204L442.92,507.158z"/>
	</g>
</g>
</svg>
