<?xml version="1.0" encoding="iso-8859-1"?>
<!-- Generator: Adobe Illustrator 22.0.1, SVG Export Plug-In . SVG Version: 6.00 Build 0)  -->
<svg version="1.1" id="Layer_7" xmlns="http://www.w3.org/2000/svg" xmlns:xlink="http://www.w3.org/1999/xlink" x="0px" y="0px"
	 viewBox="0 0 512 512" style="enable-background:new 0 0 512 512;" xml:space="preserve">
<g>
	<path style="fill:#9EC853;" d="M512,256.002C512,397.391,397.387,512,255.998,512C114.614,512,0,397.391,0,256.002
		C0,114.612,114.614,0,255.998,0C397.387,0,512,114.612,512,256.002z"/>
	<g>
		<defs>
			<path id="SVGID_59_" d="M0,255.996C0,114.607,114.613,0,256.002,0C397.387,0,512,114.607,512,255.996
				C512,397.389,397.387,512,256.002,512C114.613,512,0,397.389,0,255.996z"/>
		</defs>
		<clipPath id="SVGID_2_">
			<use xlink:href="#SVGID_59_"  style="overflow:visible;"/>
		</clipPath>
		<path style="clip-path:url(#SVGID_2_);fill:#2B1D2B;" d="M400,375.884H130v-155c0-74.558,60.441-135,135-135h0
			c74.558,0,135,60.442,135,135V375.884z"/>
		<g style="clip-path:url(#SVGID_2_);">
			<path style="fill:#E38A5B;" d="M196.07,265.974c6.561,15.537,2.988,30.638-7.979,33.73c-10.969,3.092-25.174-6.997-31.734-22.532
				c-6.561-15.537-2.988-30.639,7.979-33.73S189.511,250.439,196.07,265.974z"/>
			<path style="fill:#E38A5B;" d="M329.615,265.974c-6.56,15.537-2.986,30.638,7.981,33.73c10.967,3.092,25.174-6.997,31.732-22.532
				c6.562-15.537,2.99-30.639-7.979-33.73C350.384,240.349,336.175,250.439,329.615,265.974z"/>
		</g>
		<ellipse style="clip-path:url(#SVGID_2_);fill:#FFC34A;" cx="262.843" cy="191.577" rx="115" ry="105.272"/>
		<path style="clip-path:url(#SVGID_2_);fill:#E38A5B;" d="M448.445,545.884l-0.053-0.842c0-51.205-19.168-100.816-42.572-110.264
			l-99.68-40.158c-23.406-9.439-61.737-9.477-85.148-0.112l-101.106,40.396c-23.425,9.378-42.593,58.933-42.593,110.138
			l-0.052,0.842H448.445z"/>
		<path style="clip-path:url(#SVGID_2_);fill:#E38A5B;" d="M305.055,397.085c0,21.981-17.818,39.8-39.799,39.8h-4.826
			c-21.98,0-39.799-17.818-39.799-39.8V294.57c0-21.98,17.818-39.8,39.799-39.8h4.826c21.98,0,39.799,17.819,39.799,39.8V397.085z"
			/>
		<g style="clip-path:url(#SVGID_2_);">
			<g>
				<path style="fill:#F5B68C;" d="M351.307,291.733c0,36.842-29.862,66.702-66.704,66.702h-37.904
					c-36.837,0-66.699-29.86-66.699-66.702V182.586c0-36.837,29.862-66.702,66.699-66.702h37.904
					c36.842,0,66.704,29.865,66.704,66.702V291.733z"/>
			</g>
		</g>
		<g style="clip-path:url(#SVGID_2_);">
			<circle style="fill:#572020;" cx="230.002" cy="275.449" r="9.904"/>
			<circle style="fill:#572020;" cx="295.684" cy="275.449" r="9.904"/>
		</g>
		<g style="clip-path:url(#SVGID_2_);">
			<path style="fill:#2B1D2B;" d="M262.844,102.076c-55.532,0-100.55,48.792-100.55,108.984c0,19.989,4.969,38.717,13.635,54.824
				l9.989-84.724l153.834-0.007l10.008,84.729c8.664-16.105,13.633-34.833,13.633-54.822
				C363.392,150.868,318.375,102.076,262.844,102.076z"/>
		</g>
		<path style="clip-path:url(#SVGID_2_);fill:#E38A5B;" d="M277.016,279.542c-0.449,7.895-7.047,14.157-15.202,14.157
			c-6.908,0-12.678-4.519-14.576-10.712c-0.424,1.452-0.732,2.963-0.732,4.546c0,9.028,7.327,16.353,16.339,16.353
			c9.035,0,16.335-7.325,16.335-16.353C279.18,284.607,278.361,281.915,277.016,279.542z"/>
		<path style="clip-path:url(#SVGID_2_);fill:#FCF2C8;" d="M448.392,545.043c0-51.205-19.168-100.816-42.572-110.264l-79.255-31.93
			c-11.019,24.201-35.397,41.035-63.722,41.035c-28.194,0-52.479-16.678-63.57-40.698l-79.387,31.719
			c-23.425,9.378-42.593,58.933-42.593,110.138l-0.052,0.842h371.204L448.392,545.043z"/>
		<path style="clip-path:url(#SVGID_2_);fill:#2B1D2B;" d="M281.029,142.02l-7.488-25.441L168,193.423v52.068l65.935-16.329
			C271.381,219.889,292.466,180.874,281.029,142.02z"/>
		<path style="clip-path:url(#SVGID_2_);fill:#2B1D2B;" d="M357.361,222.137c-0.062-25.259-7.878-49.682-17.285-73.656
			c-4.714-1.676-9.787-2.596-15.076-2.596c-24.853,0-45,20.147-45,45s20.147,45,45,45
			C337.708,235.884,349.178,230.608,357.361,222.137z"/>
		<path style="clip-path:url(#SVGID_2_);fill:#C96A46;" d="M290,321.384c0,2.485-2.015,4.5-4.5,4.5H242c-2.485,0-4.5-2.015-4.5-4.5
			l0,0c0-2.485,2.015-4.5,4.5-4.5h43.5C287.985,316.884,290,318.899,290,321.384L290,321.384z"/>
	</g>
</g>
</svg>
