<?xml version="1.0" encoding="iso-8859-1"?>
<!-- Generator: Adobe Illustrator 22.0.1, SVG Export Plug-In . SVG Version: 6.00 Build 0)  -->
<svg version="1.1" id="Layer_7" xmlns="http://www.w3.org/2000/svg" xmlns:xlink="http://www.w3.org/1999/xlink" x="0px" y="0px"
	 viewBox="0 0 512 512" style="enable-background:new 0 0 512 512;" xml:space="preserve">
<g>
	<path style="fill:#78BEDE;" d="M0,255.999C0,114.609,114.613,0,256.002,0C397.386,0,512,114.609,512,255.999
		S397.386,512,256.002,512C114.613,512,0,397.389,0,255.999z"/>
	<g>
		<defs>
			<path id="SVGID_73_" d="M0,255.996C0,114.607,114.613,0,256.002,0C397.387,0,512,114.607,512,255.996
				C512,397.389,397.387,512,256.002,512C114.613,512,0,397.389,0,255.996z"/>
		</defs>
		<clipPath id="SVGID_2_">
			<use xlink:href="#SVGID_73_"  style="overflow:visible;"/>
		</clipPath>
		<path style="clip-path:url(#SVGID_2_);fill:#D12C2C;" d="M391,452.722H121v-235c0-74.558,60.441-135,135-135h0
			c74.558,0,135,60.441,135,135V452.722z"/>
		<g style="clip-path:url(#SVGID_2_);">
			<path style="fill:#E38A5B;" d="M189.227,278.837c6.561,15.537,2.988,30.638-7.979,33.729
				c-10.969,3.092-25.174-6.997-31.734-22.532c-6.561-15.537-2.988-30.639,7.979-33.73S182.668,263.302,189.227,278.837z"/>
			<path style="fill:#E38A5B;" d="M322.772,278.837c-6.561,15.537-2.986,30.638,7.98,33.729s25.174-6.997,31.732-22.532
				c6.562-15.537,2.99-30.639-7.979-33.73C343.541,253.212,329.332,263.302,322.772,278.837z"/>
		</g>
		<ellipse style="clip-path:url(#SVGID_2_);fill:#3D2A3D;" cx="256" cy="199.439" rx="105" ry="110.272"/>
		<path style="clip-path:url(#SVGID_2_);fill:#E38A5B;" d="M441.602,542.722l-0.053-0.842c0-51.205-19.168-100.816-42.572-110.264
			l-99.68-40.158c-23.406-9.439-61.737-9.477-85.148-0.112l-101.107,40.397C89.618,441.121,70.45,490.675,70.45,541.88l-0.052,0.842
			H441.602z"/>
		<path style="clip-path:url(#SVGID_2_);fill:#E38A5B;" d="M298.212,393.922c0,21.981-17.818,39.8-39.799,39.8h-4.826
			c-21.98,0-39.799-17.818-39.799-39.8V291.408c0-21.98,17.818-39.8,39.799-39.8h4.826c21.98,0,39.799,17.819,39.799,39.8V393.922z"
			/>
		<g style="clip-path:url(#SVGID_2_);">
			<g>
				<path style="fill:#F5B68C;" d="M341.653,285.645c0,47.305-38.348,85.653-85.653,85.653h-0.005
					c-47.303,0-85.65-38.347-85.65-85.65v-71.249c0-47.304,38.348-85.652,85.652-85.652h0c47.306,0,85.655,38.349,85.655,85.655
					V285.645z"/>
			</g>
		</g>
		<g style="clip-path:url(#SVGID_2_);">
			<circle style="fill:#572020;" cx="223.159" cy="288.311" r="9.904"/>
			<circle style="fill:#572020;" cx="288.841" cy="288.311" r="9.904"/>
		</g>
		<g style="clip-path:url(#SVGID_2_);">
			<path style="fill:#D12C2C;" d="M256,128.914c-54.327,0-98.367,47.733-98.367,106.619c0,19.555,4.861,37.876,13.339,53.634
				l4.927-41.787c2.763-23.437,22.628-41.099,46.228-41.1l67.735-0.003c23.598-0.001,43.463,17.655,46.231,41.09l4.937,41.798
				c8.476-15.756,13.337-34.077,13.337-53.632C354.367,176.647,310.326,128.914,256,128.914z"/>
		</g>
		<path style="clip-path:url(#SVGID_2_);fill:#E38A5B;" d="M270.173,292.404c-0.449,7.895-7.047,14.157-15.202,14.157
			c-6.908,0-12.678-4.519-14.576-10.712c-0.424,1.452-0.732,2.963-0.732,4.546c0,9.028,7.327,16.352,16.339,16.352
			c9.035,0,16.335-7.325,16.335-16.352C272.337,297.469,271.518,294.777,270.173,292.404z"/>
		<path style="clip-path:url(#SVGID_2_);fill:#FFC34A;" d="M441.549,541.88c0-51.205-19.168-100.816-42.572-110.264l-79.255-31.93
			c-11.019,24.201-35.397,41.035-63.722,41.035c-28.194,0-52.479-16.678-63.57-40.698l-79.387,31.719
			C89.618,441.121,70.45,490.675,70.45,541.88l-0.052,0.842h371.204L441.549,541.88z"/>
		<g style="clip-path:url(#SVGID_2_);">
			<g>
				<path style="fill:#C96A46;" d="M283.21,317.287c-11.207,18.079-43.153,18.134-54.431,0.1c-2.87-4.57-10.112-0.357-7.23,4.247
					c14.646,23.433,54.343,23.362,68.914-0.126C293.32,316.901,286.056,312.712,283.21,317.287L283.21,317.287z"/>
			</g>
		</g>
	</g>
</g>
</svg>
