<?xml version="1.0" encoding="iso-8859-1"?>
<!-- Generator: Adobe Illustrator 22.0.1, SVG Export Plug-In . SVG Version: 6.00 Build 0)  -->
<svg version="1.1" id="Layer_7" xmlns="http://www.w3.org/2000/svg" xmlns:xlink="http://www.w3.org/1999/xlink" x="0px" y="0px"
	 viewBox="0 0 512 512" style="enable-background:new 0 0 512 512;" xml:space="preserve">
<g>
	<path style="fill:#78BEDE;" d="M510,256.002C510,397.392,395.387,512,253.998,512C112.613,512-2,397.392-2,256.002
		C-2,114.612,112.613,0,253.998,0C395.387,0,510,114.612,510,256.002z"/>
	<g>
		<defs>
			<path id="SVGID_41_" d="M2,256.472C2,115.083,116.613,0.476,258.002,0.476C399.387,0.476,514,115.083,514,256.472
				c0,141.393-114.613,256.004-255.998,256.004C116.613,512.476,2,397.865,2,256.472z"/>
		</defs>
		<clipPath id="SVGID_2_">
			<use xlink:href="#SVGID_41_"  style="overflow:visible;"/>
		</clipPath>
		<g style="clip-path:url(#SVGID_2_);">
			<g>
				<circle style="fill:#572020;" cx="148" cy="306" r="35"/>
				<circle style="fill:#572020;" cx="208" cy="306" r="35"/>
			</g>
			<g>
				<circle style="fill:#572020;" cx="308" cy="306" r="35"/>
				<circle style="fill:#572020;" cx="368" cy="306" r="35"/>
			</g>
		</g>
		<g style="clip-path:url(#SVGID_2_);">
			<g>
				<g>
					<path style="fill:#572020;" d="M367.373,205.261c13.148-4.543,18.919-20.549,12.894-35.745
						c-6.025-15.198-21.568-23.834-34.714-19.291c-13.144,4.544-18.917,20.549-12.892,35.746
						C338.686,201.168,354.228,209.805,367.373,205.261z"/>
					<path style="fill:#572020;" d="M388.354,258.179c13.146-4.544,18.919-20.547,12.892-35.747
						c-6.025-15.197-21.566-23.832-34.712-19.289c-13.144,4.545-18.919,20.549-12.892,35.747
						C359.667,254.087,375.208,262.724,388.354,258.179z"/>
					<path style="fill:#572020;" d="M409.333,311.096c13.148-4.543,18.921-20.548,12.894-35.746
						c-6.025-15.196-21.566-23.831-34.712-19.288c-13.144,4.544-18.919,20.548-12.892,35.744
						C380.648,307.004,396.189,315.64,409.333,311.096z"/>
				</g>
				<g>
					<path style="fill:#572020;" d="M148.626,205.261c-13.146-4.543-18.917-20.549-12.894-35.745
						c6.025-15.198,21.568-23.834,34.714-19.291c13.146,4.544,18.917,20.549,12.894,35.746
						C177.313,201.168,161.774,209.805,148.626,205.261z"/>
					<path style="fill:#572020;" d="M127.645,258.179c-13.144-4.544-18.917-20.547-12.892-35.747
						c6.025-15.197,21.568-23.832,34.714-19.289c13.144,4.545,18.917,20.549,12.892,35.747
						C156.332,254.087,140.791,262.724,127.645,258.179z"/>
					<path style="fill:#572020;" d="M106.666,311.096c-13.148-4.543-18.919-20.548-12.894-35.746
						c6.025-15.196,21.566-23.831,34.712-19.288c13.146,4.544,18.919,20.548,12.894,35.744
						C135.353,307.004,119.812,315.64,106.666,311.096z"/>
				</g>
			</g>
			<polygon style="fill:#572020;" points="146.923,159 116.159,306.434 399.841,306.434 366.093,159 			"/>
		</g>
		<g style="clip-path:url(#SVGID_2_);">
			<path style="fill:#BD6442;" d="M443.602,512.476l-0.053-0.842c0-51.205-19.168-100.816-42.572-110.264l-99.68-40.158
				c-23.406-9.439-61.737-9.477-85.148-0.112l-101.107,40.397c-23.425,9.378-42.593,58.933-42.593,110.138l-0.052,0.842H443.602z"/>
			<path style="fill:#EB7FA8;" d="M443.549,511.634c0-51.205-19.168-100.816-42.572-110.264l-79.255-31.93
				c-11.019,24.201-35.397,41.035-63.722,41.035c-28.194,0-52.479-16.678-63.57-40.698l-79.387,31.719
				c-23.425,9.378-42.593,58.933-42.593,110.138l-0.052,0.842h371.204L443.549,511.634z"/>
		</g>
		<path style="clip-path:url(#SVGID_2_);fill:#BD6442;" d="M299.403,363.251c0,21.559-17.479,39.038-39.04,39.038h-4.736
			c-21.562,0-39.03-17.479-39.03-39.038V262.704c0-21.557,17.469-39.035,39.03-39.035h4.736c21.562,0,39.04,17.479,39.04,39.035
			V363.251z"/>
		<g style="clip-path:url(#SVGID_2_);">
			<path style="fill:#BD6442;" d="M188.171,223.938c6.964,15.407,3.33,30.455-8.121,33.609
				c-11.457,3.153-26.388-6.783-33.362-22.187c-6.969-15.409-3.33-30.455,8.116-33.609
				C166.26,198.596,181.201,208.531,188.171,223.938z"/>
			<path style="fill:#BD6442;" d="M327.895,222.984c-6.76,15.502-2.922,30.498,8.575,33.494
				c11.496,2.999,26.293-7.139,33.043-22.641c6.765-15.5,2.927-30.498-8.57-33.495C349.447,197.346,334.646,207.484,327.895,222.984
				z"/>
		</g>
		<g style="clip-path:url(#SVGID_2_);">
			<path style="fill:#D67F5E;" d="M343.653,264.579c0,36.842-29.862,66.702-66.704,66.702h-37.904
				c-36.837,0-66.699-29.86-66.699-66.702V155.432c0-36.837,29.862-66.702,66.699-66.702h37.904
				c36.842,0,66.704,29.865,66.704,66.702V264.579z"/>
		</g>
		<g style="clip-path:url(#SVGID_2_);">
			<g>
				<g>
					<polygon style="fill:#572020;" points="175.016,228.103 163.664,228.178 163.156,153.39 186.532,141.104 					"/>
					<polygon style="fill:#572020;" points="352.844,227.862 341.487,227.936 328.765,141.104 352.844,153.069 					"/>
				</g>
			</g>
			<path style="fill:#572020;" d="M352.861,160.492v-10.094c0-24.52-19.883-44.397-44.405-44.397H207.544
				c-24.523,0-44.406,19.878-44.406,44.397v10.094H352.861z"/>
		</g>
		<g style="clip-path:url(#SVGID_2_);">
			<circle style="fill:#3D2A3D;" cx="221.138" cy="232.05" r="11.117"/>
			<circle style="fill:#3D2A3D;" cx="294.862" cy="232.05" r="11.117"/>
		</g>
		<path style="clip-path:url(#SVGID_2_);fill:#BD6442;" d="M273.909,246c-0.504,8.861-7.91,15.891-17.063,15.891
			c-7.753,0-14.23-5.072-16.361-12.024c-0.476,1.63-0.822,3.326-0.822,5.102c0,10.133,8.225,18.355,18.339,18.355
			c10.141,0,18.335-8.221,18.335-18.355C276.337,251.686,275.418,248.664,273.909,246z"/>
		<g style="clip-path:url(#SVGID_2_);">
			<path style="fill:#572020;" d="M229.415,161.012c0,13.814-13.865,25.012-30.967,25.012s-30.969-11.199-30.969-25.012
				c0-13.813,13.867-25.012,30.969-25.012S229.415,147.199,229.415,161.012z"/>
			<path style="fill:#572020;" d="M288.969,161.012c0,13.814-13.865,25.012-30.969,25.012c-17.102,0-30.967-11.199-30.967-25.012
				C227.033,147.199,240.898,136,258,136C275.104,136,288.969,147.199,288.969,161.012z"/>
			<ellipse style="fill:#572020;" cx="317.553" cy="161.012" rx="30.967" ry="25.012"/>
		</g>
		<g style="clip-path:url(#SVGID_2_);">
			<path style="fill:#FFFFFF;" d="M278.758,281.455c-11.174,10.52-30.342,10.52-41.518,0c-7.879-7.418-19.781,4.44-11.879,11.88
				c17.939,16.887,47.338,16.887,65.275,0C298.542,285.895,286.639,274.037,278.758,281.455L278.758,281.455z"/>
		</g>
		<path style="clip-path:url(#SVGID_2_);fill:#572020;" d="M361.202,151.168c1.176-3.461,1.798-7.029,1.798-10.677
			c0-31.895-47.01-57.75-105-57.75s-105,25.855-105,57.75c0,3.648,0.622,7.216,1.798,10.677H361.202z"/>
	</g>
</g>
</svg>
