<?xml version="1.0" encoding="iso-8859-1"?>
<!-- Generator: Adobe Illustrator 22.0.1, SVG Export Plug-In . SVG Version: 6.00 Build 0)  -->
<svg version="1.1" id="Layer_7" xmlns="http://www.w3.org/2000/svg" xmlns:xlink="http://www.w3.org/1999/xlink" x="0px" y="0px"
	 viewBox="0 0 512 512" style="enable-background:new 0 0 512 512;" xml:space="preserve">
<g>
	<path style="fill:#EB7FA8;" d="M0,255.997C0,114.607,114.613,0,256.002,0C397.387,0,512,114.607,512,255.997
		C512,397.389,397.387,512,256.002,512C114.613,512,0,397.389,0,255.997z"/>
	<g>
		<defs>
			<path id="SVGID_99_" d="M0,255.996C0,114.607,114.613,0,256.002,0C397.387,0,512,114.607,512,255.996
				C512,397.389,397.387,512,256.002,512C114.613,512,0,397.389,0,255.996z"/>
		</defs>
		<clipPath id="SVGID_2_">
			<use xlink:href="#SVGID_99_"  style="overflow:visible;"/>
		</clipPath>
		<g style="clip-path:url(#SVGID_2_);">
			<path style="fill:#B35C1F;" d="M182.383,276.909c7.233,17.13,3.295,33.778-8.796,37.187
				c-12.093,3.409-27.754-7.714-34.987-24.842c-7.233-17.13-3.295-33.779,8.796-37.188
				C159.486,248.658,175.152,259.782,182.383,276.909z"/>
			<path style="fill:#B35C1F;" d="M329.616,276.909c-7.233,17.13-3.292,33.778,8.798,37.187
				c12.091,3.409,27.754-7.714,34.985-24.842c7.235-17.13,3.297-33.779-8.796-37.188
				C352.514,248.658,336.849,259.782,329.616,276.909z"/>
		</g>
		<path style="clip-path:url(#SVGID_2_);fill:#B35C1F;" d="M460.626,568.571l-0.058-0.928c0-56.454-21.133-111.15-46.936-121.566
			l-109.897-44.274c-25.805-10.407-68.065-10.448-93.876-0.124l-111.47,44.537c-25.826,10.339-46.958,64.973-46.958,121.427
			l-0.057,0.928H460.626z"/>
		<path style="clip-path:url(#SVGID_2_);fill:#B35C1F;" d="M302.539,404.519c0,24.234-19.645,43.879-43.878,43.879h-5.321
			c-24.233,0-43.878-19.645-43.878-43.879V291.497c0-24.233,19.645-43.879,43.878-43.879h5.321
			c24.233,0,43.878,19.646,43.878,43.879V404.519z"/>
		<g style="clip-path:url(#SVGID_2_);">
			<g>
				<path style="fill:#C67C47;" d="M350.433,284.414c0,52.154-42.279,94.433-94.433,94.433h0c-52.154,0-94.433-42.279-94.433-94.433
					v-78.546c0-52.154,42.279-94.433,94.433-94.433h0c52.154,0,94.433,42.279,94.433,94.433V284.414z"/>
			</g>
		</g>
		<g style="clip-path:url(#SVGID_2_);">
			<circle style="fill:#3D2A3D;" cx="219.792" cy="286.788" r="10.919"/>
			<circle style="fill:#3D2A3D;" cx="292.208" cy="286.788" r="10.919"/>
		</g>
		<g style="clip-path:url(#SVGID_2_);">
			<path style="fill:#3D2A3D;" d="M256,96.212c-61.224,0-110.856,53.793-110.856,120.155c0,22.038,5.478,42.685,15.032,60.444
				l6.822-57.859c2.39-20.273,19.573-35.549,39.986-35.55l98.016-0.004c20.411-0.001,37.595,15.271,39.989,35.542l6.835,57.87
				c9.552-17.756,15.03-38.403,15.03-60.442C366.856,150.005,317.224,96.212,256,96.212z"/>
		</g>
		<path style="clip-path:url(#SVGID_2_);fill:#B35C1F;" d="M271.626,291.867c-0.495,8.704-7.769,15.608-16.76,15.608
			c-7.616,0-13.977-4.982-16.07-11.81c-0.468,1.601-0.807,3.267-0.807,5.012c0,9.953,8.078,18.029,18.014,18.029
			c9.961,0,18.009-8.075,18.009-18.029C274.011,297.452,273.109,294.484,271.626,291.867z"/>
		<path style="clip-path:url(#SVGID_2_);fill:#2961A5;" d="M460.568,567.643c0-56.454-21.133-111.15-46.936-121.566l-87.378-35.202
			c-12.148,26.681-39.025,45.241-70.254,45.241c-31.084,0-57.858-18.387-70.086-44.87l-87.525,34.97
			c-25.826,10.339-46.958,64.973-46.958,121.427l-0.057,0.928h409.252L460.568,567.643z"/>
		<g style="clip-path:url(#SVGID_2_);">
			<path style="fill:#3D2A3D;" d="M177.397,278.929L177.397,278.929c-11.817,0-21.397-9.58-21.397-21.397v-48.908
				c0-11.817,9.58-21.397,21.397-21.397h0c11.817,0,21.397,9.58,21.397,21.397v48.908
				C198.795,269.349,189.215,278.929,177.397,278.929z"/>
			<path style="fill:#3D2A3D;" d="M216.699,247.488L216.699,247.488c-13.393,0-24.25-10.857-24.25-24.25v-55.429
				c0-13.393,10.857-24.25,24.25-24.25h0c13.393,0,24.25,10.857,24.25,24.25v55.429
				C240.949,236.631,230.092,247.488,216.699,247.488z"/>
			<path style="fill:#3D2A3D;" d="M256,239.628L256,239.628c-13.393,0-24.25-10.857-24.25-24.25v-55.429
				c0-13.393,10.857-24.25,24.25-24.25h0c13.393,0,24.25,10.857,24.25,24.25v55.429C280.25,228.771,269.393,239.628,256,239.628z"/>
			<path style="fill:#3D2A3D;" d="M295.301,248.361L295.301,248.361c-13.393,0-24.25-10.857-24.25-24.25v-55.429
				c0-13.393,10.857-24.25,24.25-24.25h0c13.393,0,24.25,10.857,24.25,24.25v55.429
				C319.552,237.504,308.694,248.361,295.301,248.361z"/>
			<path style="fill:#3D2A3D;" d="M334.603,274.562L334.603,274.562c-11.817,0-21.397-9.58-21.397-21.397v-48.908
				c0-11.817,9.58-21.397,21.397-21.397h0c11.817,0,21.397,9.58,21.397,21.397v48.908C356,264.982,346.42,274.562,334.603,274.562z"
				/>
			<ellipse style="fill:#3D2A3D;" cx="252.07" cy="182.859" rx="87.336" ry="34.934"/>
		</g>
		<g style="clip-path:url(#SVGID_2_);">
			<g>
				<circle style="fill:#3D2A3D;" cx="146" cy="223.929" r="25"/>
				<circle style="fill:#3D2A3D;" cx="146" cy="183.929" r="25"/>
				<circle style="fill:#3D2A3D;" cx="166" cy="143.929" r="25"/>
				<circle style="fill:#3D2A3D;" cx="196" cy="113.929" r="25"/>
				<circle style="fill:#3D2A3D;" cx="236" cy="103.929" r="25"/>
			</g>
			<g>
				<circle style="fill:#3D2A3D;" cx="366" cy="223.929" r="25"/>
				<circle style="fill:#3D2A3D;" cx="366" cy="183.929" r="25"/>
				<circle style="fill:#3D2A3D;" cx="346" cy="143.929" r="25"/>
				<circle style="fill:#3D2A3D;" cx="316" cy="113.929" r="25"/>
				<circle style="fill:#3D2A3D;" cx="276" cy="103.929" r="25"/>
			</g>
		</g>
		<g style="clip-path:url(#SVGID_2_);">
			<path style="fill:#FFFFFF;" d="M275.996,328.35c-11.174,10.52-30.342,10.52-41.518,0c-7.879-7.418-19.781,4.44-11.879,11.88
				c17.939,16.887,47.338,16.887,65.275,0C295.779,332.79,283.877,320.932,275.996,328.35L275.996,328.35z"/>
		</g>
		<g style="clip-path:url(#SVGID_2_);">
			<g>
				<path style="fill:#3D2A3D;" d="M205.791,275.222c8.595-4.292,18.153-5.828,27.695-5.614c8.695,0.197,8.674-13.278,0-13.474
					c-11.974-0.27-23.764,2.095-34.495,7.454C191.216,267.47,198.043,279.092,205.791,275.222L205.791,275.222z"/>
			</g>
			<g>
				<path style="fill:#3D2A3D;" d="M309.771,275.222c-8.594-4.292-18.154-5.828-27.696-5.614c-8.693,0.197-8.674-13.278,0-13.474
					c11.974-0.27,23.764,2.095,34.496,7.454C324.346,267.47,317.521,279.092,309.771,275.222L309.771,275.222z"/>
			</g>
		</g>
	</g>
</g>
</svg>
