<?xml version="1.0" encoding="iso-8859-1"?>
<!-- Generator: Adobe Illustrator 22.0.1, SVG Export Plug-In . SVG Version: 6.00 Build 0)  -->
<svg version="1.1" id="Layer_7" xmlns="http://www.w3.org/2000/svg" xmlns:xlink="http://www.w3.org/1999/xlink" x="0px" y="0px"
	 viewBox="0 0 512 512" style="enable-background:new 0 0 512 512;" xml:space="preserve">
<g>
	<path style="fill:#A18FA1;" d="M512,256.002C512,397.392,397.387,512,255.998,512C114.613,512,0,397.392,0,256.002
		C0,114.612,114.613,0,255.998,0C397.387,0,512,114.612,512,256.002z"/>
	<g>
		<defs>
			<path id="SVGID_51_" d="M0,255.996C0,114.607,114.613,0,256.002,0C397.387,0,512,114.607,512,255.996
				C512,397.389,397.387,512,256.002,512C114.613,512,0,397.389,0,255.996z"/>
		</defs>
		<clipPath id="SVGID_2_">
			<use xlink:href="#SVGID_51_"  style="overflow:visible;"/>
		</clipPath>
		<g style="clip-path:url(#SVGID_2_);">
			<path style="fill:#E3A671;" d="M295.404,369.61c0.034,20.478-16.528,37.106-37.006,37.144l-4.494,0.005
				c-20.478,0.038-37.106-16.53-37.144-37.008l-0.164-95.491c-0.033-20.473,16.523-37.106,37.008-37.139l4.492-0.012
				c20.473-0.038,37.101,16.53,37.139,37.009L295.404,369.61z"/>
			<g>
				<path style="fill:#E3A671;" d="M441.602,516l-0.053-0.842c0-51.205-19.168-100.816-42.572-110.264l-99.68-40.158
					c-23.406-9.439-61.737-9.477-85.148-0.112l-101.107,40.397c-23.425,9.378-42.593,58.933-42.593,110.138L70.398,516H441.602z"/>
				<path style="fill:#704D70;" d="M441.549,515.158c0-51.205-19.168-100.816-42.572-110.264l-79.255-31.93
					C308.704,397.166,284.326,414,256,414c-28.194,0-52.479-16.678-63.57-40.698l-79.387,31.719
					c-23.425,9.378-42.593,58.933-42.593,110.138L70.398,516h371.204L441.549,515.158z"/>
			</g>
			<g>
				<g>
					<path style="fill:#E3A671;" d="M185.992,257.965c6.909,15.363,3.183,30.322-8.31,33.406
						c-11.485,3.077-26.404-6.887-33.313-22.257c-6.901-15.368-3.186-30.314,8.313-33.403
						C164.173,232.634,179.086,242.598,185.992,257.965z"/>
					<path style="fill:#E3A671;" d="M326.013,257.716c-6.844,15.393-3.07,30.334,8.433,33.376
						c11.503,3.044,26.386-6.978,33.237-22.37c6.848-15.385,3.077-30.332-8.429-33.368
						C347.747,232.304,332.864,242.33,326.013,257.716z"/>
				</g>
				<g>
					<g>
						<path style="fill:#FFC695;" d="M349.832,263.761c0.146,76.998-88.551,117.032-148.876,69.198
							c-71.954-57.056-53.12-221.521,54.802-221.713c51.828-0.094,93.89,43.22,93.983,96.677
							C349.741,207.922,349.832,263.749,349.832,263.761z"/>
					</g>
				</g>
				<polygon style="fill:#FCF2C8;" points="180.739,83.378 183.436,105.756 158.312,105.523 174.654,131.089 208.359,105.414 				
					"/>
				<g>
					<defs>
						<path id="SVGID_53_" d="M349.832,263.761c0.146,76.998-88.551,117.032-148.876,69.198
							c-71.954-57.056-53.12-221.521,54.802-221.713c51.828-0.094,93.89,43.22,93.983,96.677
							C349.741,207.922,349.832,263.749,349.832,263.761z"/>
					</defs>
					<clipPath id="SVGID_4_">
						<use xlink:href="#SVGID_53_"  style="overflow:visible;"/>
					</clipPath>
					<circle style="clip-path:url(#SVGID_4_);fill:#F0B39C;" cx="326.869" cy="308.264" r="26.567"/>
					<circle style="clip-path:url(#SVGID_4_);fill:#F0B39C;" cx="178.095" cy="308.264" r="26.567"/>
				</g>
				<g>
					<polygon style="fill:#FCF2C8;" points="345.578,249.853 357.609,249.933 358.154,170.735 333.386,157.725 					"/>
					<polygon style="fill:#FCF2C8;" points="158.076,249.603 170.102,249.678 183.582,157.725 158.076,170.392 					"/>
				</g>
				<path style="fill:#E3A671;" d="M271.062,260.443c-0.477,8.39-7.489,15.044-16.154,15.044c-7.341,0-13.472-4.802-15.49-11.384
					c-0.451,1.543-0.778,3.149-0.778,4.831c0,9.594,7.787,17.377,17.363,17.377c9.601,0,17.359-7.784,17.359-17.377
					C273.361,265.826,272.491,262.965,271.062,260.443z"/>
				<g>
					<circle style="fill:#39998B;" cx="221.1" cy="249.918" r="10.525"/>
					<circle style="fill:#39998B;" cx="290.9" cy="249.918" r="10.525"/>
				</g>
				<path style="fill:#FCF2C8;" d="M253.71,94.626c-60.454,0-109.461,44.96-109.461,100.423c0,18.419,5.41,35.676,14.844,50.517
					l10.874-66.247l167.468-0.007l10.895,66.251c9.432-14.84,14.842-32.097,14.842-50.515
					C363.171,139.587,314.163,94.626,253.71,94.626z"/>
				<path style="fill:#FCF2C8;" d="M152.991,168.693c7.041,10.9,17.481,19.743,30.535,24.72l86.984,33.169
					c32.613,12.436,69.133-3.921,81.569-36.534l8.143-21.355H152.991z"/>
				<path style="fill:#C96A46;" d="M280.865,309.161c0,2.485-2.015,4.5-4.5,4.5h-43.5c-2.485,0-4.5-2.015-4.5-4.5l0,0
					c0-2.485,2.015-4.5,4.5-4.5h43.5C278.85,304.661,280.865,306.676,280.865,309.161L280.865,309.161z"/>
			</g>
		</g>
	</g>
</g>
</svg>
