<?xml version="1.0" encoding="iso-8859-1"?>
<!-- Generator: Adobe Illustrator 22.0.1, SVG Export Plug-In . SVG Version: 6.00 Build 0)  -->
<svg version="1.1" id="Layer_7" xmlns="http://www.w3.org/2000/svg" xmlns:xlink="http://www.w3.org/1999/xlink" x="0px" y="0px"
	 viewBox="0 0 512 512" style="enable-background:new 0 0 512 512;" xml:space="preserve">
<g>
	<path style="fill:#3D2A3D;" d="M0,255.996C0,114.607,114.613,0,256.001,0C397.387,0,512,114.607,512,255.996
		C512,397.389,397.387,512,256.001,512C114.613,512,0,397.389,0,255.996z"/>
	<g>
		<defs>
			<path id="SVGID_105_" d="M0,255.996C0,114.607,114.613,0,256.002,0C397.387,0,512,114.607,512,255.996
				C512,397.389,397.387,512,256.002,512C114.613,512,0,397.389,0,255.996z"/>
		</defs>
		<clipPath id="SVGID_2_">
			<use xlink:href="#SVGID_105_"  style="overflow:visible;"/>
		</clipPath>
		<g style="clip-path:url(#SVGID_2_);">
			<path style="fill:#E68C6F;" d="M189.227,265.974c6.561,15.537,2.988,30.638-7.979,33.73
				c-10.969,3.092-25.174-6.997-31.734-22.532c-6.561-15.537-2.988-30.639,7.979-33.73S182.668,250.439,189.227,265.974z"/>
			<path style="fill:#E68C6F;" d="M322.772,265.974c-6.561,15.537-2.986,30.638,7.98,33.73c10.967,3.092,25.174-6.997,31.732-22.532
				c6.562-15.537,2.99-30.639-7.979-33.73C343.541,240.349,329.332,250.439,322.772,265.974z"/>
		</g>
		<path style="clip-path:url(#SVGID_2_);fill:#E68C6F;" d="M441.602,545.884l-0.053-0.842c0-51.205-19.168-100.816-42.572-110.264
			l-99.68-40.158c-23.406-9.439-61.737-9.477-85.148-0.112l-101.107,40.396c-23.425,9.378-42.593,58.933-42.593,110.138
			l-0.052,0.842H441.602z"/>
		<path style="clip-path:url(#SVGID_2_);fill:#E68C6F;" d="M298.212,397.085c0,21.981-17.818,39.8-39.799,39.8h-4.826
			c-21.98,0-39.799-17.818-39.799-39.8V294.57c0-21.98,17.818-39.8,39.799-39.8h4.826c21.98,0,39.799,17.819,39.799,39.8V397.085z"
			/>
		<g style="clip-path:url(#SVGID_2_);">
			<g>
				<path style="fill:#F5B29C;" d="M341.653,291.733c0,36.842-29.862,66.702-66.704,66.702h-37.904
					c-36.837,0-66.699-29.86-66.699-66.702V182.586c0-36.837,29.862-66.702,66.699-66.702h37.904
					c36.842,0,66.704,29.865,66.704,66.702V291.733z"/>
			</g>
		</g>
		<g style="clip-path:url(#SVGID_2_);">
			<circle style="fill:#3D2A3D;" cx="223.159" cy="265.98" r="9.904"/>
			<circle style="fill:#3D2A3D;" cx="288.841" cy="265.98" r="9.904"/>
		</g>
		<path style="clip-path:url(#SVGID_2_);fill:#F59576;" d="M270.173,279.542c-0.449,7.895-7.047,14.157-15.202,14.157
			c-6.908,0-12.678-4.519-14.576-10.712c-0.424,1.452-0.732,2.963-0.732,4.546c0,9.028,7.327,16.353,16.339,16.353
			c9.035,0,16.335-7.325,16.335-16.353C272.337,284.607,271.518,281.915,270.173,279.542z"/>
		<path style="clip-path:url(#SVGID_2_);fill:#D12C2C;" d="M441.549,545.043c0-51.205-19.168-100.816-42.572-110.264l-79.255-31.93
			c-11.019,24.201-35.397,41.035-63.722,41.035c-28.194,0-52.479-16.678-63.57-40.698l-79.387,31.719
			c-23.425,9.378-42.593,58.933-42.593,110.138l-0.052,0.842h371.204L441.549,545.043z"/>
		<path style="clip-path:url(#SVGID_2_);fill:#FCEEB3;" d="M353.573,266.352l-2.267-35.445c1.206-6.854,1.86-13.929,1.86-21.18
			c0-60.192-43.503-108.984-97.166-108.984c-53.664,0-97.167,48.792-97.167,108.984c0,7.251,0.654,14.327,1.86,21.179l-2.267,35.446
			l15.146-0.467l4.34-53.143l0.123-1.076c2.067-18.139,17.416-31.839,35.672-31.84l84.573-0.004
			c18.255-0.001,33.604,13.696,35.675,31.833l0.153,1.342l4.319,52.887L353.573,266.352z"/>
		<g style="clip-path:url(#SVGID_2_);">
			<g>
				<path style="fill:#CF4D3C;" d="M279.547,308.232c-11.207,18.079-43.153,18.134-54.431,0.1c-2.87-4.57-10.112-0.357-7.23,4.247
					c14.646,23.433,54.343,23.362,68.914-0.126C289.657,307.845,282.393,303.657,279.547,308.232L279.547,308.232z"/>
			</g>
		</g>
		<path style="clip-path:url(#SVGID_2_);fill:#FCEEB3;" d="M258.21,118.844c-51.601-18.601-102.193-12.03-119.641,13.959
			c14.313,19.198,39.135,37.032,69.999,48.157c51.601,18.601,102.193,12.03,119.641-13.959
			C313.896,147.803,289.074,129.969,258.21,118.844z"/>
		<path style="clip-path:url(#SVGID_2_);fill:#FCEEB3;" d="M310,141.085c-3.475-8.019-7.907-15.945-13.291-23.502
			C271.594,82.332,234.595,67.296,210,80.783c-0.037,20.828,7.61,44.778,22.632,65.863c5.21,7.312,10.936,13.74,16.951,19.238
			C270.356,159.437,290.487,151.06,310,141.085z"/>
		<g style="clip-path:url(#SVGID_2_);">
			<g>
				<path style="fill:#FCEEB3;" d="M207.035,239.889c4.813-4.372,11.362-5.751,17.585-4.004c5.46,1.533,7.774-6.937,2.333-8.464
					c-9.305-2.611-19-0.21-26.125,6.261C196.631,237.495,202.856,243.684,207.035,239.889L207.035,239.889z"/>
			</g>
			<g>
				<path style="fill:#FCEEB3;" d="M303.791,233.682c-7.123-6.471-16.819-8.873-26.124-6.261c-5.442,1.527-3.127,9.996,2.333,8.464
					c6.224-1.747,12.772-0.368,17.585,4.004C301.763,243.684,307.989,237.495,303.791,233.682L303.791,233.682z"/>
			</g>
		</g>
	</g>
</g>
</svg>
