<?xml version="1.0" encoding="iso-8859-1"?>
<!-- Generator: Adobe Illustrator 22.0.1, SVG Export Plug-In . SVG Version: 6.00 Build 0)  -->
<svg version="1.1" id="Layer_7" xmlns="http://www.w3.org/2000/svg" xmlns:xlink="http://www.w3.org/1999/xlink" x="0px" y="0px"
	 viewBox="0 0 512 512" style="enable-background:new 0 0 512 512;" xml:space="preserve">
<g>
	<path style="fill:#2961A5;" d="M512,256.002C512,397.392,397.387,512,255.998,512C114.613,512,0,397.392,0,256.002
		C0,114.612,114.613,0,255.998,0C397.387,0,512,114.612,512,256.002z"/>
	<g>
		<defs>
			<path id="SVGID_27_" d="M0,255.996C0,114.607,114.613,0,256.002,0C397.387,0,512,114.607,512,255.996
				C512,397.389,397.387,512,256.002,512C114.613,512,0,397.389,0,255.996z"/>
		</defs>
		<clipPath id="SVGID_2_">
			<use xlink:href="#SVGID_27_"  style="overflow:visible;"/>
		</clipPath>
		<g style="clip-path:url(#SVGID_2_);">
			<g>
				<g>
					<path style="fill:#F0B39C;" d="M192.277,247.668c6.501,14.457,2.995,28.533-7.82,31.436
						c-10.808,2.896-24.846-6.48-31.348-20.944c-6.494-14.462-2.998-28.526,7.823-31.433
						C171.744,223.831,185.778,233.207,192.277,247.668z"/>
					<path style="fill:#F0B39C;" d="M324.039,247.433c-6.44,14.485-2.889,28.545,7.936,31.407
						c10.825,2.864,24.83-6.566,31.277-21.051c6.444-14.478,2.896-28.543-7.932-31.4
						C344.491,223.52,330.486,232.955,324.039,247.433z"/>
				</g>
				<path style="fill:#F0B39C;" d="M297.698,369.61c0.034,20.478-16.528,37.106-37.006,37.144l-4.494,0.005
					c-20.478,0.038-37.106-16.53-37.144-37.008l-0.164-95.491c-0.033-20.473,16.523-37.106,37.008-37.139l4.492-0.012
					c20.473-0.038,37.101,16.53,37.139,37.009L297.698,369.61z"/>
				<g>
					<path style="fill:#FFDBC5;" d="M346.453,253.122c0.138,72.456-83.328,110.13-140.095,65.116
						c-67.71-53.69-49.987-208.456,51.569-208.636c48.771-0.088,88.352,40.671,88.44,90.975
						C346.367,200.577,346.453,253.11,346.453,253.122z"/>
				</g>
				<g>
					<defs>
						<path id="SVGID_29_" d="M346.453,253.122c0.138,72.456-83.328,110.13-140.095,65.116
							c-67.71-53.69-49.987-208.456,51.569-208.636c48.771-0.088,88.352,40.671,88.44,90.975
							C346.367,200.577,346.453,253.11,346.453,253.122z"/>
					</defs>
					<clipPath id="SVGID_4_">
						<use xlink:href="#SVGID_29_"  style="overflow:visible;"/>
					</clipPath>
					<circle style="clip-path:url(#SVGID_4_);fill:#F0B39C;" cx="324.845" cy="295" r="25"/>
					<circle style="clip-path:url(#SVGID_4_);fill:#F0B39C;" cx="184.845" cy="295" r="25"/>
				</g>
				<g>
					<polygon style="fill:#733D28;" points="342.45,240.034 353.772,240.11 354.285,165.582 330.977,153.34 					"/>
					<polygon style="fill:#733D28;" points="166.008,239.799 177.324,239.87 190.008,153.34 166.008,165.259 					"/>
				</g>
				<g>
					<g>
						<path style="fill:#C96A46;" d="M285.451,288.166c-11.207,18.079-43.153,18.134-54.431,0.1c-2.87-4.57-10.112-0.357-7.23,4.247
							c14.646,23.433,54.343,23.362,68.914-0.126C295.561,287.779,288.297,283.591,285.451,288.166L285.451,288.166z"/>
					</g>
				</g>
			</g>
			<path style="fill:#F0B39C;" d="M272.329,250c-0.449,7.895-7.047,14.157-15.202,14.157c-6.908,0-12.678-4.519-14.576-10.712
				c-0.424,1.452-0.732,2.963-0.732,4.546c0,9.028,7.327,16.353,16.339,16.353c9.035,0,16.335-7.325,16.335-16.353
				C274.492,255.065,273.674,252.373,272.329,250z"/>
			<g>
				<circle style="fill:#2961A5;" cx="225.314" cy="240.096" r="9.904"/>
				<circle style="fill:#2961A5;" cx="290.997" cy="240.096" r="9.904"/>
			</g>
			<g>
				<path style="fill:#F0B39C;" d="M441.602,516l-0.053-0.842c0-51.205-19.168-100.816-42.572-110.264l-99.68-40.158
					c-23.406-9.439-61.737-9.477-85.148-0.112l-101.107,40.397c-23.425,9.378-42.593,58.933-42.593,110.138L70.398,516H441.602z"/>
				<path style="fill:#78BEDE;" d="M441.549,515.158c0-51.205-19.168-100.816-42.572-110.264l-79.255-31.93
					C308.704,397.166,284.326,414,256,414c-28.194,0-52.479-16.678-63.57-40.698l-79.387,31.719
					c-23.425,9.378-42.593,58.933-42.593,110.138L70.398,516h371.204L441.549,515.158z"/>
			</g>
		</g>
		<path style="clip-path:url(#SVGID_2_);fill:#733D28;" d="M259.005,93.963c-56.889,0-103.005,42.309-103.005,94.5
			c0,17.332,5.091,33.572,13.968,47.537l10.232-73.462l157.591-0.006l10.252,73.467c8.876-13.965,13.967-30.204,13.967-47.535
			C362.01,136.271,315.893,93.963,259.005,93.963z"/>
		<g style="clip-path:url(#SVGID_2_);">
			<g>
				<path style="fill:#733D28;" d="M204.842,228.123c9.951-4.969,21.018-6.748,32.064-6.499c10.066,0.227,10.044-15.373,0-15.6
					c-13.862-0.313-27.514,2.425-39.938,8.629C187.968,219.149,195.872,232.604,204.842,228.123L204.842,228.123z"/>
			</g>
			<g>
				<path style="fill:#733D28;" d="M308.51,228.123c-9.949-4.969-21.018-6.748-32.064-6.499c-10.065,0.227-10.043-15.373,0-15.6
					c13.863-0.313,27.514,2.425,39.938,8.629C325.385,219.149,317.483,232.604,308.51,228.123L308.51,228.123z"/>
			</g>
		</g>
		<g style="clip-path:url(#SVGID_2_);">
			<g>
				<path style="fill:#D12C2C;" d="M213.478,182.637c-0.19,9.655-8.168,17.348-17.833,17.154l-124.626-2.365
					c-9.668-0.184-17.353-8.176-17.173-17.839l0,0c0.184-9.663,8.181-17.358,17.835-17.172l124.622,2.364
					C205.976,164.972,213.661,172.965,213.478,182.637L213.478,182.637z"/>
				<path style="fill:#E06245;" d="M365.289,203.038l0.693-37.044c1.013-52.523-40.757-95.913-93.287-96.917l-17.938-0.343
					c-52.531-1.004-95.926,40.766-96.917,93.295l-0.714,37.038L365.289,203.038z"/>
			</g>
			
				<ellipse transform="matrix(0.9961 -0.0879 0.0879 0.9961 -4.6386 23.5819)" style="fill:#D12C2C;" cx="265.513" cy="64.474" rx="14.041" ry="13.333"/>
		</g>
	</g>
</g>
</svg>
